<svg xmlns="http://www.w3.org/2000/svg" width="33" height="33" viewBox="0 0 33 33"><defs><clipPath id="kvkja"><path fill="#fff" d="M16.5 0C25.613 0 33 7.387 33 16.5S25.613 33 16.5 33 0 25.613 0 16.5 7.387 0 16.5 0z"/></clipPath></defs><g><g><path fill="#38383a" d="M16.5 0C25.613 0 33 7.387 33 16.5S25.613 33 16.5 33 0 25.613 0 16.5 7.387 0 16.5 0z"/><path fill="none" stroke="#fff" stroke-linecap="round" stroke-linejoin="round" stroke-miterlimit="20" stroke-opacity=".2" stroke-width="2" d="M16.5 0C25.613 0 33 7.387 33 16.5S25.613 33 16.5 33 0 25.613 0 16.5 7.387 0 16.5 0z" clip-path="url(&quot;#kvkja&quot;)"/></g><g opacity=".3"><path fill="#fff" d="M23.828 17.081l.025.026-6.5 6.74a.49.49 0 0 1-.707 0l-6.5-6.74.025-.026A4.213 4.213 0 0 1 9 14.148h.013C9.143 11.835 10.987 10 13.25 10c1.624 0 3.035.946 3.75 2.334.715-1.388 2.126-2.334 3.75-2.334 2.263 0 4.107 1.835 4.237 4.148H25a4.213 4.213 0 0 1-1.172 2.933zm-3.078-6.044c-1.71 0-3.11 1.371-3.237 3.11H17.5a.51.51 0 0 1-.5.52.51.51 0 0 1-.5-.52h-.013c-.128-1.739-1.527-3.11-3.237-3.11-1.71 0-3.11 1.371-3.237 3.11H10c0 .708.228 1.36.611 1.883.548.747 2.183 2.258 2.08 2.25L17 22.748l4.308-4.468c-.102.008 1.292-1.38 1.836-1.957A3.16 3.16 0 0 0 24 14.148h-.013c-.128-1.74-1.527-3.111-3.237-3.111z"/></g></g></svg>